<svg width="103" height="27" viewBox="0 0 103 27" fill="none" xmlns="http://www.w3.org/2000/svg">
<path d="M15.2998 12.4987C15.3109 11.644 15.5379 10.8061 15.9598 10.0627C16.3817 9.31941 16.9847 8.69485 17.7128 8.24717C17.2502 7.58663 16.64 7.04303 15.9306 6.6595C15.2213 6.27597 14.4323 6.06309 13.6263 6.03774C11.9063 5.85702 10.2398 7.06702 9.36375 7.06702C8.47039 7.06702 7.12132 6.05581 5.66854 6.08488C4.72883 6.11534 3.81304 6.38872 3.0104 6.87837C2.20777 7.36802 1.54566 8.05724 1.08861 8.87888C-0.891391 12.3069 0.585752 17.3457 2.48247 20.1177C3.43161 21.4747 4.54104 22.9903 5.99225 22.9369C7.41282 22.8779 7.94318 22.0309 9.65761 22.0309C11.3555 22.0309 11.8537 22.9369 13.3348 22.9031C14.8583 22.878 15.8176 21.5391 16.7345 20.1688C17.4162 19.2018 17.9407 18.1332 18.2887 17.0024C17.4034 16.6279 16.648 16.0012 16.1165 15.2003C15.585 14.3994 15.301 13.4598 15.2998 12.4987ZM12.5019 4.21724C13.3332 3.21956 13.7427 1.93707 13.6435 0.642237C12.374 0.775595 11.2014 1.3824 10.3593 2.34174C9.94753 2.81029 9.63221 3.35541 9.43133 3.94592C9.23045 4.53643 9.14794 5.16074 9.18854 5.78317C9.82343 5.78992 10.4516 5.6525 11.0257 5.38125C11.5997 5.11 12.104 4.712 12.5019 4.21724ZM33.2518 19.5033H28.4055L27.2411 22.94H25.1888L29.779 10.2248H31.9122L36.5023 22.94H34.4147L33.2518 19.5033ZM28.9068 17.917H32.749L30.8554 12.3392H30.802L28.9076 17.9177L28.9068 17.917ZM46.4188 18.3082C46.4188 21.1895 44.8765 23.0398 42.55 23.0398C41.9606 23.0706 41.3745 22.9348 40.8587 22.648C40.3429 22.3612 39.9182 21.935 39.6334 21.4181H39.5894V26.0098H37.6864V13.6725H39.5281V15.2149H39.5635C39.8614 14.7005 40.2931 14.2765 40.8127 13.9879C41.3324 13.6993 41.9205 13.5569 42.5146 13.5759C44.8678 13.5759 46.4188 15.4357 46.4188 18.3082ZM44.4624 18.3082C44.4624 16.4312 43.4928 15.1976 42.0133 15.1976C40.5597 15.1976 39.5807 16.4579 39.5807 18.309C39.5807 20.1767 40.559 21.4275 42.0133 21.4275C43.4928 21.4275 44.4624 20.2018 44.4624 18.3082ZM56.619 18.3082C56.619 21.1895 55.0774 23.0398 52.7501 23.0398C52.1607 23.0706 51.5746 22.9348 51.0588 22.648C50.543 22.3612 50.1184 21.935 49.8335 21.4181H49.7895V26.0098H47.8865V13.6725H49.7283V15.2149H49.7636C50.0616 14.7004 50.4934 14.2763 51.0132 13.9877C51.533 13.6991 52.1213 13.5568 52.7155 13.5759C55.068 13.5759 56.619 15.4357 56.619 18.3082ZM54.6625 18.3082C54.6625 16.4312 53.6938 15.1976 52.2135 15.1976C50.7599 15.1976 49.7817 16.4579 49.7817 18.309C49.7817 20.1767 50.7599 21.4275 52.2135 21.4275C53.693 21.4275 54.6625 20.2018 54.6625 18.3082ZM63.3635 19.3957C63.505 20.6567 64.7299 21.4857 66.4035 21.4857C68.0071 21.4857 69.1613 20.6575 69.1613 19.5198C69.1613 18.5329 68.4652 17.9421 66.8175 17.5374L65.1699 17.1407C62.8348 16.5765 61.7505 15.4844 61.7505 13.7126C61.7505 11.5189 63.6629 10.0119 66.3775 10.0119C69.0639 10.0119 70.9064 11.5189 70.9685 13.7126H69.0474C68.9319 12.4437 67.883 11.6776 66.35 11.6776C64.8179 11.6776 63.769 12.4523 63.769 13.5806C63.769 14.4795 64.4384 15.0082 66.0774 15.4137L67.4783 15.7578C70.0869 16.3746 71.1712 17.4219 71.1712 19.2817C71.1712 21.6609 69.276 23.1506 66.262 23.1506C63.4429 23.1506 61.5391 21.6962 61.4158 19.3964L63.3635 19.3957ZM75.2797 11.4757V13.6694H77.0428V15.1764H75.2797V20.2867C75.2797 21.0802 75.6325 21.4511 76.4072 21.4511C76.617 21.4472 76.826 21.4322 77.0334 21.4071V22.9047C76.6853 22.9699 76.331 22.9989 75.9766 22.9927C74.0995 22.9927 73.368 22.2879 73.368 20.4894V15.1764H72.0198V13.6694H73.368V11.4757H75.2797ZM78.0603 18.3051C78.0603 15.3877 79.7779 13.5555 82.4564 13.5555C85.1443 13.5555 86.854 15.3877 86.854 18.3051C86.854 21.2295 85.1537 23.0547 82.4564 23.0547C79.7606 23.0547 78.0603 21.2295 78.0603 18.3051ZM84.9157 18.3051C84.9157 16.3039 83.9987 15.1229 82.4564 15.1229C80.9148 15.1229 79.9987 16.3133 79.9987 18.3051C79.9987 20.3134 80.9148 21.4857 82.4564 21.4857C83.9987 21.4857 84.9157 20.3142 84.9157 18.3051ZM88.4247 13.6725H90.2397V15.2502H90.2837C90.4068 14.7577 90.6956 14.3224 91.1016 14.0176C91.5077 13.7127 92.0062 13.5568 92.5135 13.5759C92.7327 13.5751 92.9512 13.5995 93.1657 13.6466V15.4262C92.8886 15.3417 92.5996 15.3029 92.31 15.3115C92.0337 15.3006 91.7582 15.3495 91.5025 15.455C91.2468 15.5605 91.017 15.72 90.8287 15.9226C90.6404 16.1252 90.4981 16.3661 90.4117 16.6289C90.3252 16.8916 90.2965 17.1699 90.3277 17.4447V22.9432H88.4247V13.6725ZM101.937 20.2167C101.681 21.8997 100.042 23.0547 97.9452 23.0547C95.2486 23.0547 93.575 21.2476 93.575 18.3483C93.575 15.4412 95.258 13.5555 97.8658 13.5555C100.43 13.5555 102.043 15.317 102.043 18.1283V18.7804H95.4953V18.8952C95.4652 19.2363 95.508 19.58 95.6209 19.9033C95.7338 20.2266 95.9141 20.5223 96.15 20.7706C96.3858 21.0189 96.6718 21.2143 96.9889 21.3437C97.306 21.473 97.6469 21.5335 97.9892 21.521C98.4389 21.5631 98.8902 21.4589 99.276 21.2239C99.6617 20.9889 99.9613 20.6357 100.13 20.2167H101.937ZM95.5048 17.4502H100.14C100.156 17.1437 100.109 16.837 100.002 16.5494C99.8941 16.2618 99.7286 15.9994 99.5152 15.7787C99.3018 15.558 99.0452 15.3836 98.7614 15.2664C98.4777 15.1493 98.1728 15.0919 97.8658 15.0978C97.556 15.096 97.2489 15.1556 96.9622 15.2731C96.6755 15.3906 96.4149 15.5637 96.1954 15.7824C95.9759 16.001 95.8019 16.261 95.6834 16.5473C95.5648 16.8335 95.5041 17.1404 95.5048 17.4502ZM27.557 3.24138H28.3741C28.5146 3.25875 28.6572 3.24686 28.793 3.20643C28.9287 3.16601 29.0545 3.09794 29.1627 3.0065C29.2708 2.91506 29.3588 2.80223 29.4212 2.67511C29.4836 2.548 29.519 2.40934 29.5252 2.26788C29.5252 1.70452 29.1009 1.34074 28.3828 1.34074C28.2386 1.32062 28.0919 1.32957 27.9513 1.36705C27.8107 1.40454 27.6791 1.46981 27.5641 1.559C27.4491 1.6482 27.3532 1.75952 27.2819 1.8864C27.2106 2.01328 27.1655 2.15314 27.1492 2.29774H26.2535C26.2691 2.03539 26.3385 1.77906 26.4573 1.54466C26.5762 1.31027 26.742 1.10281 26.9444 0.935183C27.1468 0.767553 27.3815 0.643329 27.634 0.570227C27.8864 0.497124 28.1512 0.476705 28.4118 0.510236C29.614 0.510236 30.4618 1.18359 30.4618 2.15316C30.4647 2.47804 30.356 2.79409 30.154 3.04849C29.9519 3.3029 29.6686 3.48026 29.3515 3.55095V3.62245C29.7273 3.63899 30.0813 3.80367 30.336 4.08048C30.5908 4.35729 30.7255 4.7237 30.7108 5.09959C30.683 5.36986 30.6015 5.63185 30.4711 5.8702C30.3407 6.10856 30.164 6.31849 29.9514 6.48768C29.7388 6.65687 29.4946 6.78192 29.2331 6.8555C28.9715 6.92907 28.6979 6.9497 28.4283 6.91617C28.1583 6.95299 27.8836 6.93507 27.6206 6.86347C27.3577 6.79188 27.1118 6.66807 26.8977 6.49943C26.6836 6.33079 26.5057 6.12078 26.3745 5.8819C26.2433 5.64302 26.1615 5.38017 26.134 5.10902H27.0455C27.1005 5.69281 27.6363 6.06995 28.4283 6.06995C29.2203 6.06995 29.7373 5.64645 29.7373 5.05009C29.7373 4.44431 29.2502 4.07109 28.3993 4.07109H27.557V3.24217V3.24138ZM31.7417 5.46102C31.7417 4.63052 32.36 4.15202 33.4561 4.08445L34.7054 4.01216V3.61459C34.7054 3.12745 34.384 2.85245 33.761 2.85245C33.2534 2.85245 32.9022 3.03867 32.8 3.36474H31.9193C32.012 2.57274 32.7584 2.06517 33.8042 2.06517C34.96 2.06517 35.6113 2.64031 35.6113 3.61459V6.76531H34.7352V6.11631H34.663C34.5168 6.34883 34.3116 6.53841 34.0682 6.66569C33.8249 6.79296 33.5521 6.85336 33.2777 6.84074C33.0843 6.8607 32.8888 6.83994 32.7038 6.77977C32.5189 6.71961 32.3485 6.62138 32.2038 6.49141C32.0591 6.36144 31.9433 6.20261 31.8637 6.02515C31.7841 5.84768 31.7425 5.65552 31.7417 5.46102ZM34.7054 5.06659V4.68159L33.5787 4.75309C32.9438 4.79552 32.6562 5.01238 32.6562 5.41859C32.6562 5.83345 33.0161 6.07467 33.5111 6.07467C33.6562 6.08955 33.8028 6.07505 33.9422 6.03203C34.0816 5.989 34.2109 5.91834 34.3223 5.82425C34.4338 5.73017 34.5252 5.61459 34.591 5.48441C34.6568 5.35424 34.6957 5.21214 34.7054 5.06659ZM38.0298 2.92631V6.77081H37.1199V2.16024H40.1559V2.92631H38.0298ZM45.67 4.46081C45.67 5.92538 44.9291 6.84388 43.7655 6.84388C43.4797 6.86346 43.1943 6.80094 42.9429 6.66368C42.6914 6.52642 42.4845 6.32014 42.3465 6.06917H42.275V8.30059H41.3643V2.15709H42.2404V2.91924H42.3088C42.4494 2.65956 42.659 2.44383 42.9146 2.29587C43.1701 2.14792 43.4616 2.07351 43.7568 2.08088C44.9291 2.08088 45.67 2.99466 45.67 4.46081ZM44.735 4.46081C44.735 3.48652 44.2738 2.89802 43.5022 2.89802C42.737 2.89802 42.2577 3.49909 42.2577 4.46474C42.2577 5.42566 42.737 6.02674 43.4991 6.02674C44.2738 6.02674 44.735 5.43824 44.735 4.46081ZM46.8808 8.42238V7.63902C46.979 7.65081 47.078 7.65709 47.177 7.65552C47.371 7.66999 47.5634 7.6123 47.7174 7.49353C47.8715 7.37476 47.9762 7.20328 48.0115 7.01202L48.079 6.78809L46.4102 2.16024H47.4018L48.5568 5.82167H48.629L49.7809 2.16024H50.7458L49.0274 6.96095C48.6338 8.08295 48.1977 8.44281 47.2572 8.44281C47.1312 8.44199 47.0061 8.43517 46.8808 8.42238ZM51.4592 5.45709H52.3651C52.4539 5.86409 52.835 6.07624 53.3685 6.07624C53.9735 6.07624 54.3459 5.80909 54.3459 5.39424C54.3459 4.94952 54.012 4.73816 53.3685 4.73816H52.6778V4.03102H53.3559C53.9059 4.03102 54.1864 3.81888 54.1864 3.43388C54.1864 3.09602 53.9153 2.83674 53.3559 2.83674C52.8475 2.83674 52.4759 3.05281 52.4162 3.41659H51.5393C51.6049 2.99848 51.832 2.62281 52.1717 2.37038C52.5114 2.11795 52.9366 2.00892 53.3559 2.06674C54.452 2.06674 55.079 2.56174 55.079 3.34116C55.084 3.55796 55.0145 3.76992 54.8821 3.94166C54.7496 4.11339 54.5623 4.23452 54.3514 4.28481V4.35709C54.6027 4.38942 54.8334 4.5129 54.9997 4.70409C55.1659 4.89528 55.2562 5.14087 55.2534 5.39424C55.2534 6.27109 54.507 6.85095 53.3677 6.85095C52.362 6.85095 51.5433 6.38816 51.4592 5.45709ZM56.56 6.77081V2.16024H57.462V5.33138H57.5343L59.6589 2.16024H60.5609V6.77081H59.6589V3.58238H59.5913L57.462 6.77081H56.56ZM65.5313 2.92631H64.0793V6.77081H63.1687V2.92631H61.7167V2.16024H65.5313V2.92631ZM70.4318 5.51995C70.3075 5.94111 70.0394 6.30528 69.6741 6.54895C69.3088 6.79262 68.8696 6.90034 68.433 6.85331C68.1292 6.86153 67.8273 6.80352 67.5482 6.6833C67.2691 6.56307 67.0195 6.38353 66.8168 6.15713C66.6142 5.93073 66.4632 5.66291 66.3744 5.37228C66.2857 5.08165 66.2613 4.77518 66.3029 4.47416C66.2623 4.17217 66.2872 3.86499 66.3757 3.57344C66.4643 3.28188 66.6144 3.01277 66.816 2.78432C67.0177 2.55586 67.2661 2.37342 67.5443 2.24934C67.8226 2.12527 68.1244 2.06245 68.429 2.06517C69.7121 2.06517 70.4868 2.94124 70.4868 4.38931V4.70674H67.2308V4.75781C67.217 4.92703 67.2384 5.09729 67.2937 5.25781C67.3491 5.41834 67.437 5.56565 67.5522 5.69045C67.6681 5.81457 67.8086 5.91319 67.9647 5.98001C68.1208 6.04684 68.2891 6.08041 68.4589 6.07859C68.6764 6.10442 68.8966 6.06513 69.0917 5.96568C69.2869 5.86623 69.4481 5.7111 69.555 5.51995H70.4318ZM67.2308 4.03416H69.5589C69.5706 3.87948 69.5497 3.72406 69.4977 3.57792C69.4456 3.43178 69.3636 3.29816 69.2568 3.18565C69.15 3.07315 69.0208 2.98426 68.8776 2.92471C68.7343 2.86515 68.5802 2.83626 68.4251 2.83988C68.1881 2.83708 67.9557 2.90564 67.7581 3.03666C67.5605 3.16767 67.4069 3.35507 67.3173 3.57452C67.2584 3.72054 67.2291 3.87675 67.2308 4.03416ZM74.2913 2.16024H76.3702C77.2715 2.16024 77.801 2.61752 77.801 3.33252C77.8023 3.55962 77.7256 3.78028 77.5838 3.95762C77.4419 4.13496 77.2435 4.25822 77.0216 4.30681V4.37831C77.2909 4.3954 77.5433 4.51523 77.7268 4.71305C77.9103 4.91087 78.0108 5.17158 78.0077 5.44138C78.0077 6.24595 77.4027 6.77081 76.3907 6.77081H74.2913V2.16024ZM75.1933 2.85874V4.05302H76.0953C76.6452 4.05302 76.9077 3.84088 76.9077 3.45116C76.9077 3.09131 76.679 2.85874 76.1958 2.85874H75.1933ZM75.1933 4.72088V6.07231H76.272C76.8102 6.07231 77.0978 5.83502 77.0978 5.39895C77.0978 4.93774 76.7718 4.72166 76.1581 4.72166L75.1933 4.72088Z" fill="white"/>
</svg>
