<svg width="120" height="30" viewBox="0 0 120 30" fill="none" xmlns="http://www.w3.org/2000/svg">
<path d="M1.31758 27.8431L1.24136 27.7708C0.942792 27.4557 0.767578 26.9654 0.767578 26.3321V26.4814V3.83006V3.98484C0.767578 3.29891 0.971864 2.78191 1.31601 2.47156L14.0029 15.1585L1.31758 27.8431ZM0.771507 3.66191V3.65956V3.66191Z" fill="url(#paint0_linear_1413_17326)"/>
<path d="M18.224 19.5363L18.3207 19.4813L23.3304 16.6354C23.8081 16.3635 24.1263 16.0343 24.285 15.6863C24.1263 16.0343 23.8081 16.3643 23.3304 16.6354L18.3207 19.482L18.224 19.537V19.5363ZM18.2248 19.387L13.9961 15.1567L18.2248 10.9272L23.3304 13.828C23.9786 14.1965 24.3424 14.6711 24.4037 15.1559V15.1583C24.3424 15.6423 23.9794 16.1168 23.3304 16.4861L18.2248 19.3862V19.387Z" fill="url(#paint1_linear_1413_17326)"/>
<path d="M2.21452 28.3228C1.86016 28.3228 1.55059 28.208 1.30938 27.9904C1.55859 28.2115 1.88221 28.3303 2.21531 28.3228C2.21504 28.3228 2.21478 28.3228 2.21452 28.3228ZM2.21452 28.1735C1.86095 28.1735 1.55138 28.058 1.31016 27.8403L13.9947 15.155L18.2242 19.3845L3.36166 27.8293C2.95073 28.0627 2.56102 28.1727 2.21452 28.1727V28.1735ZM1.30623 27.9873C1.28356 27.9665 1.26155 27.945 1.24023 27.9228L1.30623 27.9873Z" fill="url(#paint2_linear_1413_17326)"/>
<path d="M14.0006 15.1605L1.31445 2.47589C1.55567 2.25825 1.86445 2.14353 2.21802 2.14353C2.56531 2.14353 2.95581 2.25353 3.36752 2.48768L18.2293 10.9302L14.0006 15.1597V15.1605ZM18.3252 10.8359L3.36752 2.3376C2.95581 2.10346 2.5661 1.99268 2.21881 1.99268H2.2141H2.22038C2.5661 1.99268 2.95581 2.10268 3.36752 2.33682L18.3252 10.8359Z" fill="url(#paint3_linear_1413_17326)"/>
<path d="M2.31509 28.3298C2.63723 28.3109 2.99395 28.2002 3.36795 27.988L18.2305 19.5439L3.36873 27.988C2.99395 28.2002 2.63802 28.3109 2.31588 28.3298H2.31509ZM1.31645 27.9998L1.31331 27.9967C1.31439 27.9974 1.31544 27.9982 1.31645 27.999V27.9998ZM1.24731 27.9322L1.24023 27.9259L1.24731 27.9322Z" fill="white"/>
<path d="M18.2305 19.536L18.3263 19.481L18.2305 19.536Z" fill="url(#paint4_linear_1413_17326)"/>
<path d="M2.22745 28.3226C1.89452 28.3297 1.5712 28.2107 1.32231 27.9895C1.32108 27.9886 1.31977 27.9878 1.31838 27.9871L1.25238 27.9227L1.24609 27.9164L1.32231 27.8402C1.56352 28.0578 1.87231 28.1733 2.22745 28.1726C2.57316 28.1726 2.96288 28.0626 3.37459 27.8292L18.2356 19.3843L18.3307 19.4802L18.2348 19.5352L3.37302 27.9785C2.99902 28.1906 2.64231 28.3022 2.32016 28.3203L2.22666 28.3226H2.22745Z" fill="url(#paint5_linear_1413_17326)"/>
<path d="M1.2355 27.9236C0.936933 27.6085 0.761719 27.119 0.761719 26.4857V26.4849C0.761719 27.119 0.937718 27.6085 1.2355 27.9228V27.9236Z" fill="white"/>
<path d="M1.24136 27.9179C0.942792 27.6028 0.767578 27.1133 0.767578 26.4792V26.33C0.767578 26.964 0.943578 27.4535 1.24136 27.7686L1.31758 27.8417L1.24136 27.9179Z" fill="url(#paint6_linear_1413_17326)"/>
<path d="M1.24023 27.9177L1.31645 27.8415L1.24023 27.9177Z" fill="url(#paint7_linear_1413_17326)"/>
<path d="M24.2832 15.6914C24.3618 15.5185 24.4018 15.341 24.4018 15.1634V15.1626C24.4018 15.3402 24.3626 15.5177 24.284 15.6914H24.2832Z" fill="white"/>
<path d="M18.3248 19.4864L18.2305 19.3921L23.3353 16.4905C23.9835 16.122 24.3473 15.6474 24.4085 15.1626C24.4085 15.341 24.3693 15.5185 24.2907 15.6906C24.1312 16.0395 23.813 16.3687 23.3353 16.6397L18.3255 19.4864H18.3248Z" fill="url(#paint8_linear_1413_17326)"/>
<path d="M24.4072 15.1597C24.4072 14.6238 24.0489 14.0887 23.3339 13.6825L18.3242 10.8351L23.3339 13.6817C24.0497 14.0879 24.408 14.6246 24.4072 15.1597Z" fill="#757373"/>
<path d="M24.4085 15.1605C24.348 14.6757 23.9843 14.2011 23.336 13.8326L18.2305 10.9317L18.3248 10.8367H18.3255L23.336 13.6833C24.051 14.0895 24.4085 14.6254 24.4085 15.1605Z" fill="url(#paint9_linear_1413_17326)"/>
<path d="M0.761719 3.83135V3.83057V3.83135ZM0.766433 3.66557V3.66243V3.66557ZM0.766433 3.66007V3.65535V3.66007ZM0.766433 3.65457C0.826147 2.6025 1.39815 1.99514 2.20743 1.99121C1.857 1.99357 1.55136 2.10907 1.31172 2.32435L1.30936 2.32671C1.28422 2.3495 1.25986 2.37385 1.23629 2.39743C0.967576 2.68264 0.797862 3.1085 0.767219 3.65457H0.766433Z" fill="#757373"/>
<path d="M0.761719 3.98374V3.82738C0.761719 3.77081 0.76329 3.71581 0.766433 3.66238V3.65138C0.797861 3.10531 0.96679 2.67945 1.2355 2.39502L1.31015 2.47045C0.96679 2.78081 0.761719 3.29781 0.761719 3.98374ZM1.30858 2.32352L1.31093 2.32117L1.30858 2.32352Z" fill="url(#paint10_linear_1413_17326)"/>
<path d="M18.2305 10.9341L3.36873 2.48922C2.95623 2.25586 2.56652 2.14507 2.21923 2.14507C1.86566 2.14507 1.55609 2.26057 1.31566 2.47743L1.24023 2.40279C1.26381 2.37765 1.28738 2.35329 1.31331 2.33129L1.31645 2.32815C1.55531 2.11286 1.86095 1.99815 2.21216 1.99579H2.21845C2.56573 1.99579 2.95545 2.10579 3.36795 2.33993L18.3256 10.8382L18.2297 10.9341H18.2305Z" fill="url(#paint11_linear_1413_17326)"/>
<path d="M99.7345 24.9696H101.645V12.1695H99.7345V24.9696ZM116.943 16.7801L114.753 22.3296H114.687L112.414 16.7801H110.357L113.765 24.5367L111.822 28.851H113.815L119.068 16.7801H116.943ZM106.108 23.516C105.482 23.516 104.609 23.2033 104.609 22.4286C104.609 21.4409 105.697 21.0614 106.635 21.0614C107.475 21.0614 107.87 21.2429 108.381 21.4904C108.31 22.0456 108.042 22.5566 107.624 22.9289C107.206 23.3012 106.668 23.5098 106.108 23.516ZM106.338 16.4996C104.956 16.4996 103.523 17.1101 102.93 18.4599L104.626 19.1679C104.988 18.4607 105.663 18.2289 106.371 18.2289C107.36 18.2289 108.364 18.8222 108.381 19.8766V20.0078C108.034 19.8106 107.294 19.5144 106.388 19.5144C104.56 19.5144 102.698 20.5185 102.698 22.3956C102.698 24.1084 104.197 25.2124 105.877 25.2124C107.162 25.2124 107.87 24.6357 108.315 23.9607H108.381V24.9484H110.225V20.0408C110.225 17.7685 108.529 16.5004 106.338 16.5004V16.4996ZM94.5307 18.3382H91.813V13.9507H94.5307C95.9592 13.9507 96.77 15.1332 96.77 16.1444C96.77 17.1368 95.9592 18.3382 94.5307 18.3382ZM94.482 12.1695H89.9037V24.9696H91.813V20.1202H94.482C96.5987 20.1202 98.6809 18.5872 98.6809 16.1444C98.6809 13.7024 96.5987 12.1687 94.482 12.1687V12.1695ZM69.5175 23.5184C68.1975 23.5184 67.092 22.4129 67.092 20.8949C67.092 19.3612 68.1975 18.2392 69.5175 18.2392C70.8202 18.2392 71.8432 19.3612 71.8432 20.8949C71.8432 22.4129 70.8202 23.5184 69.5175 23.5184ZM71.7112 17.4974H71.6452C71.2162 16.9859 70.3912 16.5232 69.3525 16.5232C67.1745 16.5232 65.1788 18.4372 65.1788 20.8949C65.1788 23.3369 67.1745 25.2336 69.3525 25.2336C70.3912 25.2336 71.2162 24.7716 71.6452 24.2436H71.7112V24.8706C71.7112 26.5371 70.8202 27.4281 69.3855 27.4281C68.2148 27.4281 67.488 26.5866 67.191 25.8771L65.5253 26.5701C66.0038 27.7251 67.2743 29.1433 69.3855 29.1433C71.6287 29.1433 73.5255 27.8233 73.5255 24.6066V16.7879H71.7112V17.4967V17.4974ZM74.8455 24.9696H76.7587V12.1687H74.8455V24.9696ZM79.5802 20.7472C79.5299 19.0642 80.8829 18.2062 81.8564 18.2062C82.6154 18.2062 83.2581 18.5857 83.4726 19.1302L79.5802 20.7472ZM85.5186 19.2952C85.1556 18.3217 84.0501 16.5239 81.7904 16.5239C79.5464 16.5239 77.6827 18.2887 77.6827 20.8792C77.6827 23.3204 79.5299 25.2336 82.0041 25.2336C84.0006 25.2336 85.1556 24.0126 85.6341 23.3039L84.1491 22.3139C83.6549 23.0399 82.9776 23.5184 82.0041 23.5184C81.0314 23.5184 80.3384 23.0729 79.8929 22.1984L85.7158 19.7902L85.5186 19.2952ZM39.1261 17.8604V19.7069H43.5465C43.4145 20.7472 43.0688 21.5062 42.5408 22.0334C41.8973 22.6777 40.8908 23.3864 39.1261 23.3864C36.4044 23.3864 34.2767 21.1919 34.2767 18.4702C34.2767 15.7484 36.4044 13.5547 39.1261 13.5547C40.5946 13.5547 41.6663 14.1322 42.4575 14.8747L43.7618 13.5712C42.6563 12.5152 41.1878 11.7067 39.1261 11.7067C35.3979 11.7067 32.2637 14.7427 32.2637 18.4702C32.2637 22.1984 35.3987 25.2336 39.1261 25.2336C41.1391 25.2336 42.6563 24.5736 43.8435 23.3369C45.0645 22.1159 45.444 20.4007 45.444 19.0154C45.444 18.5857 45.411 18.1904 45.345 17.8604H39.1261ZM50.4702 23.5176C49.1502 23.5176 48.0117 22.4294 48.0117 20.8792C48.0117 19.3117 49.1502 18.2392 50.4702 18.2392C51.7902 18.2392 52.9272 19.3117 52.9272 20.8799C52.9272 22.4302 51.7887 23.5192 50.4695 23.5192L50.4702 23.5176ZM50.4702 16.5239C48.0612 16.5239 46.0985 18.3547 46.0985 20.8792C46.0985 23.3856 48.0612 25.2336 50.4702 25.2336C52.8785 25.2336 54.8412 23.3864 54.8412 20.8792C54.8412 18.3547 52.8785 16.5239 50.4702 16.5239ZM60.0057 23.5184C58.6865 23.5184 57.548 22.4294 57.548 20.8784C57.548 19.3117 58.6872 18.2392 60.0065 18.2392C61.3257 18.2392 62.4642 19.3117 62.4642 20.8792C62.4642 22.4294 61.3249 23.5184 60.0057 23.5184ZM60.0057 16.5239C57.5975 16.5239 55.6347 18.3547 55.6347 20.8792C55.6347 23.3856 57.5975 25.2336 60.0065 25.2336C62.4147 25.2336 64.3774 23.3864 64.3774 20.8792C64.3774 18.3547 62.4147 16.5239 60.0065 16.5239H60.0057Z" fill="white"/>
<path d="M34.7776 4.45487C34.7901 5.4268 34.5953 6.21094 34.1954 6.80573H37.3005V2.17158H34.7784V4.45487H34.7776ZM33.3617 8.8643H32.6074V6.80573H33.2077C33.7396 6.34765 33.9997 5.5643 33.9895 4.45487V1.4173H38.0909V6.80573H38.7769V8.8643H38.0218V7.56001H33.3625V8.8643H33.3617Z" fill="white"/>
<path d="M34.7754 4.45662L34.6733 4.45819L34.6748 4.54069C34.674 5.45998 34.4823 6.19462 34.1083 6.7509L34.0007 6.9104H37.4013V2.0704H34.6733V4.45662H34.8783V2.27548H37.1962V6.70455H34.194V6.80669L34.2788 6.86405C34.6811 6.26455 34.8799 5.48748 34.8799 4.5399V4.45505L34.777 4.45583H34.8791H34.777L34.7754 4.45662ZM33.3611 8.86683V8.76469H32.709V6.9104H33.2448L33.2739 6.88526C33.827 6.40755 34.091 5.6124 34.091 4.52419V4.45583V4.45662V1.52119H37.9874V6.9104H38.6733V8.76469H38.1233V7.4604H33.2582V8.86683H33.3603V8.76469V8.86683H33.4633V7.66469H37.9183V8.96898H38.8776V6.70612H38.1925V1.31612H33.886V4.52419C33.886 5.58333 33.6291 6.31012 33.1396 6.72969L33.2071 6.80826V6.70612H32.5039V8.96898H33.4633V8.86683H33.3611ZM41.0085 6.25355C41.4642 6.71397 42.0197 6.9434 42.6773 6.9434C43.3358 6.9434 43.8921 6.71397 44.3462 6.25355C44.8019 5.79312 45.0298 5.20462 45.0298 4.48962C45.0298 3.77462 44.8019 3.1869 44.3462 2.72648C43.8921 2.26605 43.3358 2.03583 42.6773 2.03583C42.0197 2.03583 41.4634 2.26605 41.0085 2.72648C40.5543 3.1869 40.3265 3.7754 40.3265 4.48962C40.3265 5.20462 40.5543 5.79312 41.0085 6.25355ZM44.93 6.7674C44.3265 7.38812 43.5754 7.69848 42.6773 7.69848C41.7801 7.69848 41.0289 7.3889 40.4255 6.7674C39.8221 6.14669 39.5211 5.38769 39.5211 4.48962C39.5211 3.59155 39.8221 2.83176 40.4255 2.21183C41.0281 1.59112 41.7793 1.28076 42.6773 1.28076C43.5707 1.28076 44.3195 1.59269 44.9261 2.21576C45.5318 2.83962 45.8351 3.59705 45.8351 4.48962C45.8351 5.38769 45.5334 6.14748 44.93 6.76819V6.7674Z" fill="white"/>
<path d="M41.0122 6.25438L40.9399 6.32588C41.4113 6.80516 41.9998 7.04873 42.6818 7.04716C43.363 7.04795 43.9531 6.80516 44.4229 6.32588C44.8975 5.84659 45.1364 5.22745 45.1356 4.49123C45.1364 3.75423 44.8975 3.13431 44.4229 2.65502C43.9531 2.17652 43.363 1.93373 42.6818 1.93452C42.3575 1.9284 42.0355 1.98922 41.7357 2.11319C41.436 2.23716 41.1651 2.42161 40.9399 2.65502C40.4661 3.13431 40.2272 3.75502 40.228 4.49123C40.228 5.22745 40.4661 5.84738 40.9399 6.32666L41.0129 6.25438L41.086 6.18209C40.6515 5.74052 40.4339 5.18423 40.4331 4.49123C40.4339 3.79745 40.6515 3.24195 41.0852 2.79959C41.5237 2.35723 42.0469 2.14038 42.6818 2.13959C43.3159 2.14038 43.8399 2.35723 44.2768 2.79959L44.2792 2.80116L44.2776 2.79959C44.7129 3.24116 44.9297 3.79745 44.9313 4.49045C44.9297 5.18423 44.7129 5.73973 44.2776 6.18209C43.8407 6.62445 43.3159 6.84131 42.6818 6.84209C42.0469 6.84131 41.5237 6.62445 41.0852 6.18209L41.0122 6.25438ZM44.9344 6.76823L44.8614 6.69752C44.2744 7.29859 43.5563 7.59638 42.6818 7.59716C41.8065 7.59638 41.0892 7.29859 40.503 6.69752C39.9177 6.09409 39.6285 5.36573 39.6269 4.49045C39.6285 3.61595 39.9177 2.88759 40.503 2.28416C41.0892 1.68231 41.8073 1.38531 42.6818 1.38373C43.5508 1.38531 44.2674 1.68388 44.8574 2.28888C45.4452 2.89466 45.7359 3.62145 45.7374 4.49123C45.7359 5.36573 45.4459 6.09409 44.8614 6.69752L44.9344 6.76823L45.0075 6.83973C45.6282 6.20252 45.9425 5.41131 45.9417 4.49045C45.9425 3.57509 45.6274 2.78545 45.0036 2.14588C44.3797 1.50316 43.5987 1.17788 42.6818 1.17945C41.7602 1.17788 40.9768 1.50159 40.3561 2.14195C39.7346 2.77916 39.4211 3.57038 39.4219 4.49123C39.4219 5.41131 39.7346 6.20252 40.3569 6.84052C40.976 7.48009 41.7602 7.80302 42.6818 7.80223C43.6027 7.80302 44.3868 7.48009 45.0075 6.83973L44.9344 6.76902V6.76823ZM49.8129 7.69852C48.9094 7.69852 48.1512 7.39288 47.5391 6.78081C46.9262 6.16795 46.6214 5.40502 46.6214 4.48966C46.6214 3.57431 46.9262 2.81138 47.5391 2.19931C48.1512 1.58645 48.9086 1.28002 49.8129 1.28002C50.7385 1.28002 51.4912 1.61552 52.0695 2.28416L51.5195 2.81688C51.1031 2.29595 50.5327 2.03588 49.8129 2.03588C49.1427 2.03588 48.5778 2.26216 48.1182 2.71395C47.6569 3.16573 47.4267 3.75816 47.4267 4.48966C47.4267 5.22195 47.6569 5.81438 48.1182 6.26538C48.5778 6.71795 49.1427 6.94345 49.8129 6.94345C50.5515 6.94345 51.1801 6.64645 51.701 6.05166L52.2494 6.60009C51.9689 6.93795 51.6177 7.20509 51.1934 7.40231C50.7608 7.60189 50.2894 7.70306 49.8129 7.69852Z" fill="white"/>
<path d="M49.8113 7.69929V7.59714C48.9305 7.59557 48.2045 7.30171 47.6105 6.7085C47.0165 6.1145 46.7227 5.38222 46.7227 4.48964C46.7227 3.59786 47.0165 2.86557 47.6105 2.27157C48.2045 1.67836 48.9305 1.38371 49.8113 1.38371C50.7133 1.3845 51.4299 1.7035 51.9909 2.35093L52.0679 2.28493L51.9972 2.21107L51.4472 2.74379L51.5179 2.81686L51.598 2.75321C51.1635 2.20793 50.5554 1.93214 49.8113 1.93371C49.1183 1.93293 48.5227 2.171 48.045 2.64086C47.5626 3.11229 47.3222 3.73693 47.3237 4.49043C47.3222 5.24314 47.5634 5.86857 48.045 6.33922C48.5219 6.80907 49.1183 7.04636 49.8113 7.04636C50.5774 7.04714 51.2413 6.73286 51.7756 6.11921L51.6994 6.05164L51.6271 6.12471L52.1755 6.67314L52.2478 6.60086L52.1692 6.53564C51.8916 6.86678 51.543 7.13128 51.1494 7.30957C50.73 7.50293 50.273 7.60088 49.8113 7.59636V7.80064C50.322 7.80064 50.7989 7.70007 51.2358 7.49579C51.6572 7.30458 52.0302 7.02101 52.3272 6.66607L52.3869 6.59536L51.7717 5.97936L51.6939 5.90157L51.6224 5.98407C51.1156 6.56079 50.5216 6.8405 49.8113 6.84129C49.1647 6.8405 48.6312 6.62679 48.1888 6.19307C47.7488 5.76093 47.5288 5.2015 47.5288 4.49043C47.5288 3.77857 47.7488 3.21993 48.1888 2.787C48.6312 2.35329 49.1647 2.13957 49.8113 2.13879C50.5074 2.14036 51.0386 2.38393 51.4377 2.8805L51.5084 2.96929L52.1394 2.358L52.2093 2.29121L52.1464 2.21814C51.5509 1.52672 50.762 1.17707 49.8113 1.17786C48.8842 1.17786 48.0945 1.49607 47.4652 2.127C46.8327 2.75636 46.516 3.55229 46.5176 4.49043C46.516 5.42779 46.8327 6.22372 47.4652 6.85386C48.0945 7.484 48.8842 7.80222 49.8113 7.80143V7.69929ZM55.4394 7.56493H54.6497V2.17572H52.9337V1.42143H57.1554V2.17572H55.4394V7.56493Z" fill="white"/>
<path d="M55.4418 7.55863V7.45649H54.7543V2.06806H53.0383V1.51806H57.0556V2.06806H55.3396V7.55863H55.4418V7.45649V7.55863H55.5439V2.27235H57.2599V1.31299H52.834V2.27235H54.55V7.66156H55.5439V7.55942H55.4418V7.55863ZM62.5745 1.41749L60.2503 6.59927C59.9282 7.33235 59.4528 7.6977 58.8172 7.6977C58.6069 7.69298 58.3997 7.64651 58.2075 7.56099L58.4133 6.83106C58.5453 6.9057 58.6828 6.94263 58.8258 6.94263C59.0089 6.94263 59.1503 6.90727 59.2501 6.83577C59.3507 6.76506 59.4434 6.63385 59.5291 6.44527L59.7522 5.95577L57.685 1.41749H58.6121L60.1301 4.94377H60.1639L61.6473 1.41749H62.5745Z" fill="white"/>
<path d="M62.5799 1.41738L62.4856 1.37574L60.1614 6.5591C59.8448 7.26938 59.4134 7.5931 58.8226 7.59624C58.6497 7.59624 58.4604 7.5546 58.2522 7.46738L58.2129 7.56167L58.3111 7.58917L58.5169 6.86002L58.4187 6.83252L58.3684 6.92131C58.5138 7.00381 58.6694 7.04702 58.8304 7.04624C59.0261 7.04624 59.1895 7.00931 59.3152 6.92052C59.4386 6.83095 59.5368 6.6856 59.6279 6.48838L59.8511 5.99967L59.8699 5.95645L57.8491 1.52031H58.5492L60.0679 5.04738H60.2369L61.7203 1.52031H62.5799V1.41817L62.4856 1.37574L62.5799 1.41817V1.31524H61.5844L60.0742 4.90438L60.1685 4.94367V4.84152H60.1355V4.94367L60.2298 4.9036L58.6835 1.31524H57.5293L59.6437 5.95567L59.4402 6.40352C59.3592 6.58267 59.272 6.69817 59.195 6.75238C59.1204 6.8066 59.0002 6.84117 58.8297 6.84038C58.7026 6.84034 58.5778 6.80644 58.4682 6.74217L58.3543 6.67852L58.1131 7.5326L58.0887 7.61981L58.172 7.65517C58.3999 7.75102 58.6159 7.80053 58.8218 7.80053C59.5007 7.80367 60.0216 7.3951 60.3477 6.64081V6.6416L62.7362 1.31445H62.5791V1.4166L62.5799 1.41738ZM63.4756 7.56481V1.42052H67.9204V7.56481H67.1307V2.1756H64.2644V7.56481H63.4756Z" fill="white"/>
<path d="M63.4693 7.55857H63.5715V1.518H67.812V7.45643H67.2274V2.068H64.1553V7.45643H63.4693V7.55857H63.5715H63.4693V7.66071H64.3603V2.27228H67.0223V7.6615H68.017V1.31293H63.3672V7.6615H63.4693V7.55936V7.55857ZM69.3213 7.56486V1.42057H70.111V4.05507H73.1823V1.42136H73.9728V7.56486H73.1823V4.79286H70.111V7.56486H69.3213Z" fill="white"/>
<path d="M69.3189 7.55934H69.4211V1.51877H70.0057V4.15249H73.2821V1.51877H73.8674V7.4572H73.2821V4.6852H70.0057V7.4572H69.3189V7.55934H69.4211H69.3189V7.66149H70.2092V4.89106H73.0762V7.66306H74.0709V1.31449H73.0762V3.9482H70.2092V1.3137H69.2168V7.66227H69.3189V7.56013V7.55934ZM76.4792 6.25349C76.9341 6.71391 77.4896 6.94334 78.148 6.94334C78.8057 6.94334 79.3627 6.71391 79.8169 6.25349C80.2718 5.79306 80.4997 5.20456 80.4997 4.48956C80.4997 3.77456 80.2718 3.18684 79.8169 2.72642C79.3627 2.26599 78.8057 2.03577 78.148 2.03577C77.4896 2.03577 76.9341 2.26599 76.4792 2.72642C76.025 3.18684 75.7972 3.77534 75.7972 4.48956C75.7972 5.20456 76.025 5.79306 76.4792 6.25349ZM80.4007 6.76734C79.7972 7.38806 79.0461 7.69842 78.148 7.69842C77.2499 7.69842 76.4996 7.38884 75.8962 6.76734C75.2919 6.14663 74.991 5.38763 74.991 4.48956C74.991 3.59149 75.2919 2.8317 75.8962 2.21177C76.4996 1.59106 77.2499 1.2807 78.148 1.2807C79.0414 1.2807 79.7902 1.59263 80.3967 2.2157C81.0025 2.83956 81.3058 3.59699 81.3058 4.48956C81.3058 5.38763 81.0041 6.14742 80.4007 6.76813V6.76734Z" fill="white"/>
<path d="M76.4848 6.25432L76.4117 6.32582C76.6368 6.55944 76.9077 6.74409 77.2075 6.8682C77.5072 6.99231 77.8293 7.05322 78.1537 7.0471C78.8357 7.04789 79.425 6.8051 79.8956 6.32582C80.3702 5.84653 80.609 5.22739 80.6082 4.49117C80.609 3.75417 80.3702 3.13424 79.8956 2.65496C79.425 2.17646 78.8357 1.93367 78.1537 1.93446C77.8294 1.92838 77.5073 1.98923 77.2076 2.1132C76.9079 2.23716 76.637 2.42159 76.4117 2.65496C75.9387 3.13424 75.6999 3.75496 75.7007 4.49117C75.6999 5.22739 75.9387 5.84732 76.4117 6.3266L76.4848 6.25432L76.5579 6.18203C76.1234 5.74046 75.9065 5.18417 75.905 4.49117C75.9065 3.79739 76.1234 3.24189 76.5579 2.79953C76.9963 2.35717 77.5196 2.14032 78.1537 2.13953C78.7877 2.14032 79.3126 2.35717 79.7495 2.79953L79.7526 2.80267L79.7495 2.79953C80.1855 3.2411 80.4024 3.79739 80.4032 4.49039C80.4024 5.18417 80.1855 5.73967 79.7495 6.18203C79.3126 6.62439 78.7877 6.84124 78.1537 6.84203C77.5196 6.84124 76.9963 6.62439 76.5579 6.18203L76.4848 6.25432ZM80.4063 6.76817L80.3332 6.69746C79.7463 7.29853 79.0282 7.59632 78.1537 7.5971C77.28 7.59632 76.561 7.29853 75.9757 6.69746L75.9725 6.69432L75.9757 6.69746C75.3895 6.09403 75.1004 5.36567 75.0996 4.49039C75.1004 3.61589 75.3895 2.88753 75.9757 2.2841C76.561 1.68224 77.28 1.38524 78.1537 1.38367C79.0235 1.38524 79.7392 1.68382 80.3293 2.28882C80.917 2.8946 81.2085 3.62139 81.2093 4.49117C81.2085 5.36567 80.9178 6.09403 80.3332 6.69746L80.4063 6.76817L80.4802 6.83967C81.1009 6.20246 81.4152 5.41124 81.4144 4.49039C81.4152 3.57503 81.1001 2.78539 80.4762 2.14582C79.8524 1.5031 79.0706 1.17782 78.1537 1.17939C77.232 1.17782 76.4487 1.50153 75.8287 2.14189C75.2065 2.7791 74.8937 3.57032 74.8945 4.49117C74.8937 5.41124 75.2065 6.20246 75.8287 6.84046C76.4487 7.48003 77.232 7.80296 78.1537 7.80217C79.0753 7.80296 79.8587 7.48003 80.4802 6.83967L80.4063 6.76896V6.76817ZM85.3265 6.8106H86.9144C87.2177 6.8106 87.4636 6.70453 87.653 6.49239C87.8415 6.28182 87.935 6.04924 87.935 5.79782C87.935 5.54639 87.8384 5.31617 87.6435 5.10717C87.4502 4.89817 87.1941 4.79367 86.8798 4.79367H85.3265V6.8106ZM85.3265 4.05589H86.7596C87.0582 4.05589 87.2962 3.95767 87.477 3.75967C87.6569 3.56246 87.7472 3.34717 87.7472 3.11225C87.7472 2.8781 87.66 2.66282 87.4848 2.46874C87.3104 2.27389 87.0802 2.17646 86.795 2.17646H85.3265V4.05589ZM84.5376 7.56567V1.42139H86.7596C87.2405 1.42139 87.6569 1.58089 88.0081 1.89753C88.3601 2.21574 88.5361 2.61489 88.5361 3.09496C88.5414 3.36972 88.4618 3.63943 88.3082 3.86732C88.1583 4.08931 87.9489 4.26465 87.704 4.37332V4.40789C88.0057 4.51003 88.2556 4.68839 88.4505 4.93982C88.6437 5.19124 88.742 5.48353 88.742 5.8151C88.742 6.31796 88.5581 6.73596 88.188 7.06753C87.8318 7.39493 87.3636 7.57323 86.8798 7.56567H84.5376Z" fill="white"/>
<path d="M85.3238 6.80448V6.90662H86.9125C87.0657 6.91123 87.218 6.88209 87.3587 6.82126C87.4994 6.76042 87.625 6.6694 87.7265 6.55462C87.9292 6.32912 88.0361 6.06905 88.0353 5.79091C88.0361 5.51276 87.9245 5.25426 87.7163 5.03112C87.5042 4.80091 87.2142 4.68384 86.8772 4.68541H85.2217V6.90662H85.3238V6.80448H85.4267V4.88969H86.8772C87.1702 4.89048 87.3902 4.98398 87.5662 5.17019C87.747 5.36584 87.8295 5.56698 87.831 5.79091C87.8295 6.01719 87.7485 6.22148 87.5733 6.41791C87.4028 6.60805 87.1915 6.70076 86.9125 6.70155H85.3238V6.80369H85.4267H85.3238V6.80448ZM85.3238 4.04898V4.15112H86.7577C87.0767 4.15269 87.3517 4.04269 87.5497 3.82191C87.7438 3.61134 87.8467 3.36698 87.8467 3.10612C87.8467 2.84605 87.7477 2.60326 87.5584 2.39348V2.39426C87.3667 2.17741 87.1003 2.06662 86.7923 2.06819H85.2217V4.15191H85.3238V4.04976H85.4267V2.27248H86.7923C87.0555 2.27405 87.2504 2.35891 87.406 2.53098H87.4067H87.406C87.5662 2.71012 87.6409 2.89712 87.6425 3.10612C87.6409 3.31355 87.5647 3.50134 87.3989 3.68441C87.237 3.86041 87.0327 3.94605 86.7577 3.94684H85.3238V4.04898H85.4267H85.3238ZM84.5357 7.55876H84.6379V1.51819H86.7577C87.215 1.51819 87.6024 1.66669 87.9371 1.96762C88.2702 2.26934 88.4305 2.63312 88.4321 3.08884C88.4321 3.36226 88.3614 3.59719 88.2215 3.80384C88.0821 4.01042 87.8871 4.17332 87.659 4.27369L87.5992 4.30119V4.47484L87.6676 4.49841C87.9536 4.59584 88.1838 4.75926 88.3669 4.99576L88.3685 4.99734L88.3669 4.99576C88.5476 5.23148 88.6372 5.49705 88.6372 5.80898C88.6364 6.28748 88.4667 6.67012 88.117 6.98519C87.7795 7.29554 87.3356 7.46431 86.8772 7.45662H84.5357V7.55876H84.6379H84.5357V7.66091H86.8772C87.3864 7.66849 87.8792 7.48099 88.2545 7.13684C88.4435 6.97186 88.5941 6.76748 88.6956 6.53807C88.7971 6.30866 88.8472 6.0598 88.8422 5.80898C88.8473 5.46974 88.7367 5.1389 88.5287 4.87084L88.5279 4.86926L88.5287 4.87084C88.3265 4.60703 88.0498 4.40996 87.7344 4.30512L87.7014 4.40098H87.8043V4.36719H87.7014L87.7438 4.46069C88.011 4.33969 88.2302 4.15741 88.3905 3.91855C88.5547 3.67812 88.6364 3.39762 88.6364 3.08884C88.6411 2.84856 88.5932 2.61016 88.4962 2.3903C88.3992 2.17044 88.2553 1.97443 88.0746 1.81598L88.0722 1.81362L88.0746 1.81519C87.7159 1.48582 87.2447 1.30618 86.7577 1.31312H84.4336V7.66169H84.5357V7.55955V7.55876Z" fill="white"/>
<defs>
<linearGradient id="paint0_linear_1413_17326" x1="12.8778" y1="3.5967" x2="-4.30657" y2="20.7811" gradientUnits="userSpaceOnUse">
<stop stop-color="#00A0FF"/>
<stop offset="0.007" stop-color="#00A1FF"/>
<stop offset="0.26" stop-color="#00BEFF"/>
<stop offset="0.512" stop-color="#00D2FF"/>
<stop offset="0.76" stop-color="#00DFFF"/>
<stop offset="1" stop-color="#00E3FF"/>
</linearGradient>
<linearGradient id="paint1_linear_1413_17326" x1="25.1933" y1="15.1567" x2="0.417378" y2="15.1567" gradientUnits="userSpaceOnUse">
<stop stop-color="#FFE000"/>
<stop offset="0.409" stop-color="#FFBD00"/>
<stop offset="0.775" stop-color="#FFA500"/>
<stop offset="1" stop-color="#FF9C00"/>
</linearGradient>
<linearGradient id="paint2_linear_1413_17326" x1="15.97" y1="17.505" x2="-7.33269" y2="40.8078" gradientUnits="userSpaceOnUse">
<stop stop-color="#FF3A44"/>
<stop offset="1" stop-color="#C31162"/>
</linearGradient>
<linearGradient id="paint3_linear_1413_17326" x1="-1.97376" y1="-5.13847" x2="8.43224" y2="5.26753" gradientUnits="userSpaceOnUse">
<stop stop-color="#32A071"/>
<stop offset="0.069" stop-color="#2DA771"/>
<stop offset="0.476" stop-color="#15CF74"/>
<stop offset="0.801" stop-color="#06E775"/>
<stop offset="1" stop-color="#00F076"/>
</linearGradient>
<linearGradient id="paint4_linear_1413_17326" x1="25.1991" y1="15.1572" x2="0.423585" y2="15.1572" gradientUnits="userSpaceOnUse">
<stop stop-color="#CCB300"/>
<stop offset="0.409" stop-color="#CC9700"/>
<stop offset="0.775" stop-color="#CC8400"/>
<stop offset="1" stop-color="#CC7D00"/>
</linearGradient>
<linearGradient id="paint5_linear_1413_17326" x1="15.9822" y1="17.5049" x2="-7.32055" y2="40.8076" gradientUnits="userSpaceOnUse">
<stop stop-color="#CC2E36"/>
<stop offset="1" stop-color="#9C0E4E"/>
</linearGradient>
<linearGradient id="paint6_linear_1413_17326" x1="12.8778" y1="3.59531" x2="-4.30657" y2="20.7797" gradientUnits="userSpaceOnUse">
<stop stop-color="#008DE0"/>
<stop offset="0.007" stop-color="#008DE0"/>
<stop offset="0.26" stop-color="#00A7E0"/>
<stop offset="0.512" stop-color="#00B8E0"/>
<stop offset="0.76" stop-color="#00C4E0"/>
<stop offset="1" stop-color="#00C7E0"/>
</linearGradient>
<linearGradient id="paint7_linear_1413_17326" x1="15.9763" y1="17.5062" x2="-7.3272" y2="40.8097" gradientUnits="userSpaceOnUse">
<stop stop-color="#E0333C"/>
<stop offset="1" stop-color="#AB0F56"/>
</linearGradient>
<linearGradient id="paint8_linear_1413_17326" x1="25.1982" y1="15.1618" x2="0.422249" y2="15.1618" gradientUnits="userSpaceOnUse">
<stop stop-color="#E0C500"/>
<stop offset="0.409" stop-color="#E0A600"/>
<stop offset="0.775" stop-color="#E09100"/>
<stop offset="1" stop-color="#E08900"/>
</linearGradient>
<linearGradient id="paint9_linear_1413_17326" x1="25.199" y1="15.162" x2="0.423035" y2="15.162" gradientUnits="userSpaceOnUse">
<stop stop-color="#FFE840"/>
<stop offset="0.409" stop-color="#FFCE40"/>
<stop offset="0.775" stop-color="#FFBC40"/>
<stop offset="1" stop-color="#FFB540"/>
</linearGradient>
<linearGradient id="paint10_linear_1413_17326" x1="12.8719" y1="3.59481" x2="-4.31243" y2="20.7792" gradientUnits="userSpaceOnUse">
<stop stop-color="#40B8FF"/>
<stop offset="0.007" stop-color="#40B9FF"/>
<stop offset="0.26" stop-color="#40CEFF"/>
<stop offset="0.512" stop-color="#40DDFF"/>
<stop offset="0.76" stop-color="#40E7FF"/>
<stop offset="1" stop-color="#40EAFF"/>
</linearGradient>
<linearGradient id="paint11_linear_1413_17326" x1="-1.97255" y1="-5.13535" x2="8.43266" y2="5.27065" gradientUnits="userSpaceOnUse">
<stop stop-color="#65B895"/>
<stop offset="0.069" stop-color="#62BD95"/>
<stop offset="0.476" stop-color="#50DB97"/>
<stop offset="0.801" stop-color="#44ED98"/>
<stop offset="1" stop-color="#40F498"/>
</linearGradient>
</defs>
</svg>
