<svg width="88" height="28" viewBox="0 0 88 28" fill="none" xmlns="http://www.w3.org/2000/svg">
<path d="M57.7093 22.8749C56.2317 22.8749 54.9971 22.4944 54.0056 21.7333C53.014 20.9527 52.5182 19.7818 52.5182 18.2206C52.5182 16.4252 53.1793 15.1469 54.5013 14.3859C55.8429 13.6053 57.9621 13.215 60.859 13.215H61.938V13.1271C61.938 12.7173 61.9185 12.4051 61.8797 12.1904C61.8408 11.9562 61.7144 11.7416 61.5005 11.5464C61.2867 11.3317 60.9756 11.2244 60.5673 11.2244C59.7896 11.2244 59.3424 11.6635 59.2258 12.5417H53.0432C53.1404 10.6682 53.8792 9.22413 55.2596 8.20934C56.6594 7.19456 58.5648 6.68716 60.9756 6.68716C63.4253 6.68716 65.2918 7.19456 66.575 8.20934C67.8776 9.20461 68.5289 10.678 68.5289 12.6295V22.4651H62.113V20.738C61.3353 22.1626 59.8674 22.8749 57.7093 22.8749ZM60.3048 18.484C60.7909 18.484 61.1797 18.3572 61.4714 18.1035C61.7825 17.8303 61.938 17.4985 61.938 17.1082V16.6106H60.9173C60.159 16.6106 59.6632 16.6886 59.4299 16.8448C59.1966 16.9814 59.08 17.2448 59.08 17.6351C59.08 18.2011 59.4883 18.484 60.3048 18.484Z" fill="#50DB97"/>
<path d="M57.7093 22.8749C56.2317 22.8749 54.9971 22.4944 54.0056 21.7333C53.014 20.9527 52.5182 19.7818 52.5182 18.2206C52.5182 16.4252 53.1793 15.1469 54.5013 14.3859C55.8429 13.6053 57.9621 13.215 60.859 13.215H61.938V13.1271C61.938 12.7173 61.9185 12.4051 61.8797 12.1904C61.8408 11.9562 61.7144 11.7416 61.5005 11.5464C61.2867 11.3317 60.9756 11.2244 60.5673 11.2244C59.7896 11.2244 59.3424 11.6635 59.2258 12.5417H53.0432C53.1404 10.6682 53.8792 9.22413 55.2596 8.20934C56.6594 7.19456 58.5648 6.68716 60.9756 6.68716C63.4253 6.68716 65.2918 7.19456 66.575 8.20934C67.8776 9.20461 68.5289 10.678 68.5289 12.6295V22.4651H62.113V20.738C61.3353 22.1626 59.8674 22.8749 57.7093 22.8749ZM60.3048 18.484C60.7909 18.484 61.1797 18.3572 61.4714 18.1035C61.7825 17.8303 61.938 17.4985 61.938 17.1082V16.6106H60.9173C60.159 16.6106 59.6632 16.6886 59.4299 16.8448C59.1966 16.9814 59.08 17.2448 59.08 17.6351C59.08 18.2011 59.4883 18.484 60.3048 18.484Z" fill="url(#paint0_radial_1761_20651)"/>
<path d="M57.7093 22.8749C56.2317 22.8749 54.9971 22.4944 54.0056 21.7333C53.014 20.9527 52.5182 19.7818 52.5182 18.2206C52.5182 16.4252 53.1793 15.1469 54.5013 14.3859C55.8429 13.6053 57.9621 13.215 60.859 13.215H61.938V13.1271C61.938 12.7173 61.9185 12.4051 61.8797 12.1904C61.8408 11.9562 61.7144 11.7416 61.5005 11.5464C61.2867 11.3317 60.9756 11.2244 60.5673 11.2244C59.7896 11.2244 59.3424 11.6635 59.2258 12.5417H53.0432C53.1404 10.6682 53.8792 9.22413 55.2596 8.20934C56.6594 7.19456 58.5648 6.68716 60.9756 6.68716C63.4253 6.68716 65.2918 7.19456 66.575 8.20934C67.8776 9.20461 68.5289 10.678 68.5289 12.6295V22.4651H62.113V20.738C61.3353 22.1626 59.8674 22.8749 57.7093 22.8749ZM60.3048 18.484C60.7909 18.484 61.1797 18.3572 61.4714 18.1035C61.7825 17.8303 61.938 17.4985 61.938 17.1082V16.6106H60.9173C60.159 16.6106 59.6632 16.6886 59.4299 16.8448C59.1966 16.9814 59.08 17.2448 59.08 17.6351C59.08 18.2011 59.4883 18.484 60.3048 18.484Z" fill="url(#paint1_radial_1761_20651)"/>
<path d="M70.5895 27.5V7.15553H77.2679V9.29242C78.2983 7.55558 79.8051 6.68716 81.7882 6.68716C83.5769 6.68716 85.0545 7.37995 86.221 8.76552C87.407 10.1316 88 12.1221 88 14.7371V14.9713C88 17.5863 87.3973 19.5574 86.1919 20.8844C85.0059 22.2114 83.5185 22.8749 81.7299 22.8749C80.68 22.8749 79.7565 22.6505 78.9594 22.2017C78.1817 21.7333 77.6178 21.1186 77.2679 20.3575V27.5H70.5895ZM79.1052 17.8108C80.5245 17.8108 81.2341 16.835 81.2341 14.8835V14.6493C81.2341 12.6197 80.5245 11.605 79.1052 11.605C77.7637 11.605 77.0929 12.61 77.0929 14.62V14.8542C77.0929 16.8252 77.7637 17.8108 79.1052 17.8108Z" fill="#50DB97"/>
<path d="M70.5895 27.5V7.15553H77.2679V9.29242C78.2983 7.55558 79.8051 6.68716 81.7882 6.68716C83.5769 6.68716 85.0545 7.37995 86.221 8.76552C87.407 10.1316 88 12.1221 88 14.7371V14.9713C88 17.5863 87.3973 19.5574 86.1919 20.8844C85.0059 22.2114 83.5185 22.8749 81.7299 22.8749C80.68 22.8749 79.7565 22.6505 78.9594 22.2017C78.1817 21.7333 77.6178 21.1186 77.2679 20.3575V27.5H70.5895ZM79.1052 17.8108C80.5245 17.8108 81.2341 16.835 81.2341 14.8835V14.6493C81.2341 12.6197 80.5245 11.605 79.1052 11.605C77.7637 11.605 77.0929 12.61 77.0929 14.62V14.8542C77.0929 16.8252 77.7637 17.8108 79.1052 17.8108Z" fill="url(#paint2_radial_1761_20651)"/>
<path d="M70.5895 27.5V7.15553H77.2679V9.29242C78.2983 7.55558 79.8051 6.68716 81.7882 6.68716C83.5769 6.68716 85.0545 7.37995 86.221 8.76552C87.407 10.1316 88 12.1221 88 14.7371V14.9713C88 17.5863 87.3973 19.5574 86.1919 20.8844C85.0059 22.2114 83.5185 22.8749 81.7299 22.8749C80.68 22.8749 79.7565 22.6505 78.9594 22.2017C78.1817 21.7333 77.6178 21.1186 77.2679 20.3575V27.5H70.5895ZM79.1052 17.8108C80.5245 17.8108 81.2341 16.835 81.2341 14.8835V14.6493C81.2341 12.6197 80.5245 11.605 79.1052 11.605C77.7637 11.605 77.0929 12.61 77.0929 14.62V14.8542C77.0929 16.8252 77.7637 17.8108 79.1052 17.8108Z" fill="url(#paint3_radial_1761_20651)"/>
<path d="M10.1197 22.3873C6.85339 22.3873 4.34534 21.6067 2.59554 20.0455C0.865179 18.4648 0 16.1327 0 13.0494V1.04752H7.75745V12.8152C7.75745 14.0446 7.90327 14.9326 8.1949 15.479C8.50598 16.0254 9.14757 16.2986 10.1197 16.2986C11.0529 16.2986 11.6556 16.0352 11.9278 15.5083C12.2 14.9618 12.3361 14.0837 12.3361 12.8737V10.2966C12.3361 7.11561 13.2304 4.27617 15.0191 2.75399C16.0534 1.87557 17.3202 1.2539 18.8195 0.888986C19.885 0.629662 21.0679 0.5 22.3683 0.5C23.2055 0.5 23.9929 0.551287 24.7305 0.653861C25.1655 0.714357 25.5832 0.792692 25.9836 0.888867C27.5527 1.26581 28.8557 1.91679 29.8924 2.84181C31.6228 4.42253 32.488 6.58983 32.488 9.67321C33.6156 7.79976 35.2437 6.86302 37.3629 6.86302C39.2877 6.86302 40.6195 7.65339 41.3583 9.23412C42.7192 7.65339 44.3718 6.86302 46.3161 6.86302C47.8131 6.86302 48.9991 7.35091 49.874 8.32666C50.7683 9.2829 51.2155 10.6295 51.2155 12.3663V22.1531H44.5663V13.7714C44.5663 13.303 44.4399 12.9322 44.1871 12.659C43.9538 12.3663 43.6525 12.2199 43.2831 12.2199C42.311 12.2199 41.8249 12.8249 41.8249 14.0349V22.1531H35.234V13.7714C35.234 13.303 35.1076 12.9322 34.8549 12.659C34.6216 12.3663 34.3202 12.2199 33.9508 12.2199C32.9787 12.2199 32.4926 12.8249 32.4926 14.0349V22.1531H24.7305V10.56C24.7305 9.33058 24.5847 7.95476 24.2931 7.40834C23.982 6.86192 23.3404 6.58871 22.3683 6.58871C21.4351 6.58871 20.8324 6.85216 20.5602 7.37907C20.288 7.92549 20.1519 9.29155 20.1519 10.5015V13.0786C20.1519 16.2596 19.2575 18.6112 17.4688 20.1333C15.6996 21.636 13.2499 22.3873 10.1197 22.3873Z" fill="#50DB97"/>
<path d="M10.1197 22.3873C6.85339 22.3873 4.34534 21.6067 2.59554 20.0455C0.865179 18.4648 0 16.1327 0 13.0494V1.04752H7.75745V12.8152C7.75745 14.0446 7.90327 14.9326 8.1949 15.479C8.50598 16.0254 9.14757 16.2986 10.1197 16.2986C11.0529 16.2986 11.6556 16.0352 11.9278 15.5083C12.2 14.9618 12.3361 14.0837 12.3361 12.8737V10.2966C12.3361 7.11561 13.2304 4.27617 15.0191 2.75399C16.0534 1.87557 17.3202 1.2539 18.8195 0.888986C19.885 0.629662 21.0679 0.5 22.3683 0.5C23.2055 0.5 23.9929 0.551287 24.7305 0.653861C25.1655 0.714357 25.5832 0.792692 25.9836 0.888867C27.5527 1.26581 28.8557 1.91679 29.8924 2.84181C31.6228 4.42253 32.488 6.58983 32.488 9.67321C33.6156 7.79976 35.2437 6.86302 37.3629 6.86302C39.2877 6.86302 40.6195 7.65339 41.3583 9.23412C42.7192 7.65339 44.3718 6.86302 46.3161 6.86302C47.8131 6.86302 48.9991 7.35091 49.874 8.32666C50.7683 9.2829 51.2155 10.6295 51.2155 12.3663V22.1531H44.5663V13.7714C44.5663 13.303 44.4399 12.9322 44.1871 12.659C43.9538 12.3663 43.6525 12.2199 43.2831 12.2199C42.311 12.2199 41.8249 12.8249 41.8249 14.0349V22.1531H35.234V13.7714C35.234 13.303 35.1076 12.9322 34.8549 12.659C34.6216 12.3663 34.3202 12.2199 33.9508 12.2199C32.9787 12.2199 32.4926 12.8249 32.4926 14.0349V22.1531H24.7305V10.56C24.7305 9.33058 24.5847 7.95476 24.2931 7.40834C23.982 6.86192 23.3404 6.58871 22.3683 6.58871C21.4351 6.58871 20.8324 6.85216 20.5602 7.37907C20.288 7.92549 20.1519 9.29155 20.1519 10.5015V13.0786C20.1519 16.2596 19.2575 18.6112 17.4688 20.1333C15.6996 21.636 13.2499 22.3873 10.1197 22.3873Z" fill="url(#paint4_radial_1761_20651)"/>
<path d="M10.1197 22.3873C6.85339 22.3873 4.34534 21.6067 2.59554 20.0455C0.865179 18.4648 0 16.1327 0 13.0494V1.04752H7.75745V12.8152C7.75745 14.0446 7.90327 14.9326 8.1949 15.479C8.50598 16.0254 9.14757 16.2986 10.1197 16.2986C11.0529 16.2986 11.6556 16.0352 11.9278 15.5083C12.2 14.9618 12.3361 14.0837 12.3361 12.8737V10.2966C12.3361 7.11561 13.2304 4.27617 15.0191 2.75399C16.0534 1.87557 17.3202 1.2539 18.8195 0.888986C19.885 0.629662 21.0679 0.5 22.3683 0.5C23.2055 0.5 23.9929 0.551287 24.7305 0.653861C25.1655 0.714357 25.5832 0.792692 25.9836 0.888867C27.5527 1.26581 28.8557 1.91679 29.8924 2.84181C31.6228 4.42253 32.488 6.58983 32.488 9.67321C33.6156 7.79976 35.2437 6.86302 37.3629 6.86302C39.2877 6.86302 40.6195 7.65339 41.3583 9.23412C42.7192 7.65339 44.3718 6.86302 46.3161 6.86302C47.8131 6.86302 48.9991 7.35091 49.874 8.32666C50.7683 9.2829 51.2155 10.6295 51.2155 12.3663V22.1531H44.5663V13.7714C44.5663 13.303 44.4399 12.9322 44.1871 12.659C43.9538 12.3663 43.6525 12.2199 43.2831 12.2199C42.311 12.2199 41.8249 12.8249 41.8249 14.0349V22.1531H35.234V13.7714C35.234 13.303 35.1076 12.9322 34.8549 12.659C34.6216 12.3663 34.3202 12.2199 33.9508 12.2199C32.9787 12.2199 32.4926 12.8249 32.4926 14.0349V22.1531H24.7305V10.56C24.7305 9.33058 24.5847 7.95476 24.2931 7.40834C23.982 6.86192 23.3404 6.58871 22.3683 6.58871C21.4351 6.58871 20.8324 6.85216 20.5602 7.37907C20.288 7.92549 20.1519 9.29155 20.1519 10.5015V13.0786C20.1519 16.2596 19.2575 18.6112 17.4688 20.1333C15.6996 21.636 13.2499 22.3873 10.1197 22.3873Z" fill="url(#paint5_radial_1761_20651)"/>
<defs>
<radialGradient id="paint0_radial_1761_20651" cx="0" cy="0" r="1" gradientUnits="userSpaceOnUse" gradientTransform="translate(-6.14838 -5.28571) rotate(38.8221) scale(59.6809 38.9452)">
<stop stop-color="#0C75F1"/>
<stop offset="1" stop-color="#0C75F1" stop-opacity="0"/>
</radialGradient>
<radialGradient id="paint1_radial_1761_20651" cx="0" cy="0" r="1" gradientUnits="userSpaceOnUse" gradientTransform="translate(101.833 -12.2286) rotate(124.073) scale(50.7565 36.5737)">
<stop stop-color="#0C75F1"/>
<stop offset="1" stop-color="#0C75F1" stop-opacity="0"/>
</radialGradient>
<radialGradient id="paint2_radial_1761_20651" cx="0" cy="0" r="1" gradientUnits="userSpaceOnUse" gradientTransform="translate(-6.14838 -5.28571) rotate(38.8221) scale(59.6809 38.9452)">
<stop stop-color="#0C75F1"/>
<stop offset="1" stop-color="#0C75F1" stop-opacity="0"/>
</radialGradient>
<radialGradient id="paint3_radial_1761_20651" cx="0" cy="0" r="1" gradientUnits="userSpaceOnUse" gradientTransform="translate(101.833 -12.2286) rotate(124.073) scale(50.7565 36.5737)">
<stop stop-color="#0C75F1"/>
<stop offset="1" stop-color="#0C75F1" stop-opacity="0"/>
</radialGradient>
<radialGradient id="paint4_radial_1761_20651" cx="0" cy="0" r="1" gradientUnits="userSpaceOnUse" gradientTransform="translate(-6.14838 -5.28571) rotate(38.8221) scale(59.6809 38.9452)">
<stop stop-color="#0C75F1"/>
<stop offset="1" stop-color="#0C75F1" stop-opacity="0"/>
</radialGradient>
<radialGradient id="paint5_radial_1761_20651" cx="0" cy="0" r="1" gradientUnits="userSpaceOnUse" gradientTransform="translate(101.833 -12.2286) rotate(124.073) scale(50.7565 36.5737)">
<stop stop-color="#0C75F1"/>
<stop offset="1" stop-color="#0C75F1" stop-opacity="0"/>
</radialGradient>
</defs>
</svg>
